<svg xmlns="http://www.w3.org/2000/svg" viewBox="0 0 619 495.69"><defs><style>.cls-1,.cls-6{fill:#90d6ed;}.cls-1{opacity:0.4;}.cls-2{fill:#249790;}.cls-3{fill:#fff;}.cls-4{fill:#f38422;}.cls-5{fill:#e86f15;}.cls-7{fill:#234b8c;}.cls-8{fill:#f2ab04;}.cls-9{fill:#f7cba4;}.cls-10,.cls-11{opacity:0.2;}.cls-12{fill:#0f112a;}.cls-13{fill:#1f1683;}.cls-14{fill:#c08d6c;}.cls-15{fill:#e4ebef;}.cls-16{fill:#b9cdd6;}.cls-17{fill:#0a344d;}</style></defs><g id="Calque_2" data-name="Calque 2"><g id="Calque_1-2" data-name="Calque 1"><path class="cls-1" d="M57.62,493.19c-16.07-20.51-6.69-52.62,8.45-73.95s35.71-39.43,43.14-65.11c8.76-30.3-3.16-62.84-17.08-90.77s-30.53-56.09-31.8-87.81c-1.56-39,20.52-74.43,45.2-102.84,31.92-36.76,75.05-69,121.3-63.2,33.15,4.17,61.58,27.26,85.77,52.2s46.43,52.94,75.25,71.18a157.52,157.52,0,0,0,68.46,23.16c30.8,3.09,62.11-2.14,92.65,3.21s62.28,25.43,68.78,58.23c9.65,48.65-39.38,90.18-40.34,139.92-.44,22.73,9.28,44,16.05,65.5s10.26,46.83-1.38,65.74"/><path class="cls-2" d="M92.75,424.87s-1.34-26.14,15.08-53.25,39.89-25.45,46.69-11.1-5.19,25.91-24.41,37.47S92.75,424.87,92.75,424.87Z"/><path class="cls-2" d="M74,402s-3.94-38-27.38-51.61-48-3.24-46.57,16.08S58.22,387.15,74,402Z"/><path class="cls-2" d="M77.44,367.14c-5.52-16.43,2.36-37.67,13.14-50,9.68-11.07,27.13-10,34.24,3.41,10.76,20.3-18.85,30.65-31.68,37.94C88.63,361.06,82.37,366.38,77.44,367.14Z"/><path class="cls-2" d="M67.35,352.64s7.71-26.6-3.28-46.57-37.73-17.88-41.69,1.22S54,340.11,67.35,352.64Z"/><path class="cls-3" d="M87.24,464.63q-.33-4.39-.73-8.79c-.79-8.07-1.85-16.12-3-24.15-.9-5.88-1.9-11.74-3-17.59-3.22-6.58-16-29.43-42.73-41.52a.64.64,0,0,1-.32-.85.63.63,0,0,1,.84-.32C61.72,382,74.56,400.68,79.76,409.93q-2.46-13.1-5.41-26.12c-3.5-15.35-7.38-30.64-11.83-45.75-3.55-9.37-10-21.54-21.27-29.4a.64.64,0,1,1,.73-1.05c20.85,14.56,25.61,43.48,25.65,43.78a.56.56,0,0,1,0,.34q3.77,13.17,7.07,26.47c1.25-8.68,5.89-29.43,22.29-39.82a.64.64,0,1,1,.68,1.08c-18.92,12-21.77,38.3-22.1,42.24.15.58.3,1.16.44,1.74,3.84,15.83,7.17,31.79,9.86,47.88.49,3,1,6,1.4,9,3.17-13.11,13.73-45.71,43-62.8a.64.64,0,0,1,.65,1.11c-31.73,18.51-41.18,55.59-43.15,65.22q.83,5.82,1.49,11.66L89.85,470"/><polygon class="cls-4" points="119.93 434.43 117.72 444.06 108.39 484.73 68.81 484.73 59.47 444.06 57.26 434.43 119.93 434.43"/><polygon class="cls-5" points="119.93 434.43 117.72 444.06 59.47 444.06 57.26 434.43 119.93 434.43"/><rect class="cls-6" x="107.92" y="50.63" width="65.88" height="65.88" rx="6.53"/><path class="cls-3" d="M146.35,93.29c1.39-1.36,2.63-2.63,3.93-3.82s2.6-1.33,4,0c1.71,1.63,3.36,3.31,5,5a2.51,2.51,0,0,1,.06,3.77,43.12,43.12,0,0,1-3.37,3.39c-1.86,1.63-4.22,1.48-6.24.83C136.43,98.22,127,89.64,122.15,76.39a9.35,9.35,0,0,1,4.76-11.86A2.52,2.52,0,0,1,130,65c1.77,1.73,3.53,3.48,5.21,5.3a2.61,2.61,0,0,1-.11,3.81c-1,1.12-2.13,2.2-3.25,3.26a1.32,1.32,0,0,0-.26,2A42.37,42.37,0,0,0,146.35,93.29Z"/><rect class="cls-6" x="526.12" y="202.93" width="80.72" height="52.23" rx="2.84"/><path class="cls-3" d="M566.43,238.5a.66.66,0,0,1-.42-.15l-38.9-31.82a.67.67,0,1,1,.84-1L566.43,237l38.79-32.14a.67.67,0,0,1,.85,1l-39.21,32.49A.68.68,0,0,1,566.43,238.5Z"/><path class="cls-3" d="M527.31,253.42a.63.63,0,0,1-.45-.18.66.66,0,0,1-.05-.94l24.49-26.71a.67.67,0,1,1,1,.9L527.8,253.2A.68.68,0,0,1,527.31,253.42Z"/><path class="cls-3" d="M605.43,253.42a.7.7,0,0,1-.5-.22l-24.48-26.71a.66.66,0,0,1,0-.94.68.68,0,0,1,1,0l24.48,26.71a.67.67,0,0,1-.49,1.12Z"/><polygon class="cls-7" points="180.44 400.8 174.82 490.47 235.72 493.19 244.71 462.02 250.22 490.47 317.86 491.95 300.1 399.31 180.44 400.8"/><path class="cls-4" d="M205.39,65.09c-5.28-13.4-6.13-28.95-.13-42.05s21-24.47,43.87-22.89c6.29.43,4.12,2.4,10.42,2.31,2.54,0,5.08-.41,7.59,0,5.5.8,8.33,5,11.6,9.5a54.1,54.1,0,0,1,4.14,55.56,70.52,70.52,0,0,1-10.76,14.88c-8.7,9.49-24.85,22.22-38.79,17.28C220.26,95,210.12,77.12,205.39,65.09Z"/><path class="cls-8" d="M305.85,360.33c.91-20.41,2.78-40.79,5.31-61.09,1.23-9.94.69-19.87,1.92-29.81,5.37-43.2,11.93-77,9.7-120.51-.14-2.76-.34-8.78-1.73-11.19-2.49-4.35-12.71-10.72-17.7-11.79-24.09-5.2-46.52-3.68-70.89-3.09-18.19.44-34.22,4.45-51.39,10.79-5.19,1.91-10.61,4.22-13.67,8.72-4.38,6.44-2.47,14.95-.84,22.52,6.24,28.93,6,58.76,9.35,88.14,4,34.42,5.81,70.28,4.22,104.87l-1.87,46.45c39.18,6.9,88.37,13.24,127.28,2.57C305,391.37,305.15,375.84,305.85,360.33Z"/><path class="cls-9" d="M224.4,126.33V96.43h38.33v28.91s-4.7,13.5-18.12,13.75S224.4,126.33,224.4,126.33Z"/><g class="cls-10"><path d="M236,117.58c2.77.64,5.65,2,8.48,1.85a36.45,36.45,0,0,0,15.49-4.5,22.88,22.88,0,0,0,2.73-1.79V96.43H224.4v15.09l1.92,1.25C229.37,114.74,232.49,116.76,236,117.58Z"/></g><path class="cls-9" d="M206.69,50.16c0-.91-.08-1.84-.11-2.75a38.1,38.1,0,1,1,76.17-1.52c0,.53,0,1.08,0,1.62,0,.88-.07,1.78-.11,2.66l-2.14,22.11c-.9,5.9-.5,9.49-2.06,12.94-5.22,11.59-20.61,27.74-31.65,28.52-11,4-30.72-16.83-36-28.6-1.53-3.42-1.11-7-2-12.86Z"/><path class="cls-9" d="M217.14,62.84c2.59,6,1.14,12.28-3.23,14.15s-10-1.45-12.62-7.4-1.15-12.29,3.23-14.15S214.54,56.88,217.14,62.84Z"/><path class="cls-9" d="M272.18,62.84c-2.6,6-1.15,12.28,3.23,14.15s10-1.45,12.62-7.4,1.14-12.29-3.23-14.15S274.77,56.88,272.18,62.84Z"/><path class="cls-4" d="M231.73,47.6c-6.56,1.54-13.35,1.83-20.08,2.11A58.43,58.43,0,0,0,212,62.66a31.5,31.5,0,0,1-8.34-27.61c2-10.35,9.38-19.21,18.6-24.33s20.08-6.74,30.59-6c5.9.41,12.08,1.7,16.42,5.71a29.7,29.7,0,0,1,4,5q3.46,5.06,6.55,10.36c3,5.09,5.71,10.55,6,16.44.36,8-3.95,15.5-9.51,21.21a69.55,69.55,0,0,0-.25-8.78,3.37,3.37,0,0,0-.45-1.65A3.77,3.77,0,0,0,274,51.83c-4.69-2.18-1.14-9-4.34-13-2.47-3.12-13.79.78-18.15,4C247.32,45.79,236.74,46.42,231.73,47.6Z"/><path class="cls-9" d="M169,98.42a.5.5,0,0,0,0-1,.5.5,0,0,0,0,1Z"/><path class="cls-9" d="M360.19,257.08c-.14-.09-7.54-8-9.92-12.44q-5.08-9.39-10.42-18.63c-9.75-16.87-14.33-25.32-24.56-41.86-5.53-9-11-18-16.14-27.15-9.22-17.29,21.33-35.13,32.39-18.39,8.65,13.07,49.49,83.28,47.29,112.08C378.35,256.91,365.06,260.44,360.19,257.08Z"/><path class="cls-11" d="M323.22,136.22l6.23,39.59s6.45,32,11.65,46,10.46,26.51,16.27,27.24"/><path class="cls-11" d="M302.31,159.14s-4.92,1.44,2.4,18.92,15.41,36.22,15.41,36.22l2.77-31.5Z"/><path class="cls-8" d="M327.42,138.27l33.43,44.51s-17.58,18.65-36.35,25.67c0,0-24.89-39.66-30.74-50.37C286.7,145.15,287.89,108.83,327.42,138.27Z"/><path class="cls-9" d="M295.48,54.23c11.77,4.71,32.33,39.68,32.33,39.68s37.4,88.73,47.36,119.21c10.33,31.64,3.63,38,3.67,38l-24.64-1.74c-5.51-4.7-40.66-145.72-40.66-145.72l-14-10c-8.38-6-8.3-28.2-8.3-28.2C294.12,52.63,290.28,52.15,295.48,54.23Z"/><polygon class="cls-11" points="176.37 176.88 193.4 180.03 173.59 214.51 168.46 180.84 176.37 176.88"/><path class="cls-9" d="M217.32,327.19c-5.69-13.83-47.17-37.7-47.17-37.7l-69.91-61.08s0-.11,0-.16l-24.58,23.8c5.6,6.45,83.18,54.38,83.18,54.38l12,16.35c7.2,9.81,33.36,9.48,33.36,9.48C219.22,328.77,219.83,333.31,217.32,327.19Z"/><path class="cls-9" d="M75.65,252.05l18.8-5.29-1.15-3.84c4.86-3.44,25.13-17.83,26.67-20.07C155.25,197.32,184,179.24,184,179.24c19.33-12.68,19.91-52.4-1-41.34-16.34,8.65-109.12,64.85-123.13,95.91A5.33,5.33,0,0,0,58.71,237a.59.59,0,0,0,0,.14h.05C59.28,244.5,75.65,252.05,75.65,252.05Z"/><path class="cls-8" d="M173.78,136.83,110,177.42S121.59,206,139.57,222c0,0,45.13-33.63,56.35-43.1C209.46,167.46,214.56,113.12,173.78,136.83Z"/><path class="cls-7" d="M282.19,105h0A3.94,3.94,0,0,1,279,100.4l9.43-57.51A3.94,3.94,0,0,1,293,39.72h0a4,4,0,0,1,3.17,4.57l-9.43,57.5A3.94,3.94,0,0,1,282.19,105Z"/><path class="cls-12" d="M513.11,289.16c-4.16-7.64-7.09-16.1-9.64-24.27-5.52-17.75-4.42-35.92-4.75-54.25-.14-7.89-.88-15.87-3.2-23.44-1.13-3.71-3.3-14.52-13.63-18.68-2.95-7.72-11-13.21-20.42-16.1-26.17-8-61.63,15.51-65,45.42-2.15,19.2-1,39.09-.38,58.36.32,10.12,1.34,20.31-1.7,30.13-3.58,11.6-10.8,21.67-15.12,33A68.94,68.94,0,0,0,376.74,360c1.88,7.68,5.1,15.08,5.87,23s-1.55,16.77-8.29,20.92c12.6-3.7,21.74-14.39,29.48-25,7.52-10.31,14.62-21.48,16.55-34.08-.88,20.56,3,41.82,14.28,59s30.59,29.83,51.18,29.9c-12.56-7.84-17.12-23.62-20.69-38a96.16,96.16,0,0,0,80.31,12.13c-4.67-1.08-7.81-5.44-9.83-9.78-6.12-13.12-5.89-28.17-6.34-42.64s-2-29.82-10.83-41.31a36.73,36.73,0,0,0,23.69,2.39c-6.67,1.58-20.78-15.14-24.12-19.65A66.32,66.32,0,0,1,513.11,289.16Z"/><path class="cls-13" d="M401.45,479.35s8.29-35.52-6.16-91.79c-4.15-16.15-9.7-31.8-4.63-45.62,8-21.82-14.14-35.35-3.26-46,11.37-10.55,36.71-16.92,40.91-23.09l37.93-1h0l30,13.87L511.32,296c10.88,10.67-11.27,24.2-3.26,46,5.07,13.82-.48,29.47-4.63,45.62-14.46,56.27-6.16,91.79-6.16,91.79"/><path class="cls-14" d="M506.67,349.21l25.62-21.75s55.34,67.84,57.1,78.9l-30.53,9.22C548.67,400.22,506.67,349.21,506.67,349.21Z"/><path class="cls-14" d="M492.21,454.71c-3.06,2.11-6.25,4.27-9.9,4.94-3.42.62-6.91-.11-10.37-.4a40.59,40.59,0,0,0-34.15,14.52,119.83,119.83,0,0,0,28.66,5.78,62.49,62.49,0,0,0,14.4-.31c6.32-1,12.32-3.41,18.25-5.82L529.87,461c18.19-7.36,36.78-15,51.37-28.12,4.83-4.35,9.32-9.59,10.59-16s-1.79-14-8-15.91q-5.62,1.27-11.28,2.31c-3.14.57-6.49.81-9.49,2-4,1.56-6.93,5.4-10.42,7.86-12.88,9-25.93,17.84-38.89,26.77Z"/><path class="cls-14" d="M428.31,277.43V248.36h37.27v28.1S461,289.59,448,289.83,428.31,277.43,428.31,277.43Z"/><path class="cls-11" d="M439.62,268.93c2.69.62,5.49,1.91,8.24,1.79a35.38,35.38,0,0,0,15.06-4.37,22.48,22.48,0,0,0,2.66-1.74V248.36H428.31V263l1.87,1.21C433.14,266.17,436.18,268.13,439.62,268.93Z"/><path class="cls-14" d="M411.11,203.39c-.05-.88-.09-1.78-.11-2.67a34.83,34.83,0,0,1,.3-6.32A37,37,0,0,1,485,199.24c0,.51,0,1,0,1.58,0,.86-.07,1.73-.11,2.59l-2.09,21.48a44.7,44.7,0,0,1-3.52,12.58c-5.09,11.27-15.28,24-28.08,26.37-14.08,2.66-29.49-15-34.6-26.45a44.33,44.33,0,0,1-3.47-12.5Z"/><path class="cls-14" d="M419.72,215.71c2.52,5.79,1.12,11.95-3.14,13.76s-9.74-1.4-12.27-7.19-1.11-11.94,3.14-13.76S417.2,209.93,419.72,215.71Z"/><path class="cls-14" d="M476.29,215.71c-2.52,5.79-1.12,11.95,3.14,13.76s9.74-1.4,12.26-7.19,1.12-11.94-3.13-13.76S478.81,209.93,476.29,215.71Z"/><path class="cls-12" d="M435.44,200.9c-6.38,1.5-13,1.78-19.52,2a57.09,57.09,0,0,0,.35,12.6,30.65,30.65,0,0,1-8.1-26.85c1.94-10,9.12-18.67,18.07-23.65s19.52-6.55,29.74-5.84c5.73.4,11.75,1.65,16,5.56a28.17,28.17,0,0,1,3.92,4.83c2.24,3.27,4.37,6.63,6.36,10.06,2.88,5,5.56,10.26,5.81,16,.35,7.74-3.84,15.07-9.25,20.62a67.47,67.47,0,0,0-.24-8.53,3.35,3.35,0,0,0-.43-1.6,3.65,3.65,0,0,0-1.6-1.11,32.46,32.46,0,0,1-11.66-9.32c-2.4-3-3.89-9.72-6.81-11.73-3.06,3.83-4.67,7.87-8.9,10.95A37.76,37.76,0,0,1,435.44,200.9Z"/><path class="cls-13" d="M508.8,294.73a168.77,168.77,0,0,1,36.52,37.17s-33.62,28.34-36.81,30.58c0,0-21.17-23.2-26.53-35.53S486.31,287.52,508.8,294.73Z"/><path class="cls-14" d="M393.94,347.39l-25.62-21.75s-55.35,67.84-57.11,78.9l30.53,9.22C351.93,398.4,393.94,347.39,393.94,347.39Z"/><path class="cls-14" d="M408.39,452.89c3.07,2.11,6.25,4.27,9.91,4.94,3.41.62,6.91-.11,10.37-.4A40.53,40.53,0,0,1,462.81,472a119.64,119.64,0,0,1-28.65,5.77,61.91,61.91,0,0,1-14.4-.3c-6.33-1-12.33-3.42-18.26-5.82l-30.76-12.46c-18.19-7.37-36.79-15-51.37-28.12-4.83-4.35-9.33-9.59-10.59-16s1.78-14,8-15.9q5.61,1.28,11.28,2.31c3.13.57,6.48.81,9.48,2,4,1.56,6.93,5.41,10.43,7.86,12.87,9,25.92,17.85,38.88,26.77Z"/><path class="cls-13" d="M391.8,292.91a168.77,168.77,0,0,0-36.52,37.17s33.63,28.33,36.82,30.58c0,0,21.16-23.21,26.52-35.54S414.29,285.7,391.8,292.91Z"/><path class="cls-15" d="M360.27,359.4H543.72a4.17,4.17,0,0,1,4.17,4.17V479.84a0,0,0,0,1,0,0H356.1a0,0,0,0,1,0,0V363.56A4.17,4.17,0,0,1,360.27,359.4Z"/><circle class="cls-16" cx="451.99" cy="419.62" r="13.43" transform="translate(-84.62 115.6) rotate(-13.34)"/><rect class="cls-17" x="49.24" y="479.79" width="551.8" height="15.9" rx="7.76"/></g></g></svg>