<svg width="48" height="49" viewBox="0 0 48 49" fill="none" xmlns="http://www.w3.org/2000/svg">
<path d="M45.7378 15.7378C45.4618 15.0873 45.1607 14.4492 44.8346 13.8362L39.4655 16.4009C40.9081 19.0155 41.7235 22.0305 41.7235 25.2207C41.7235 34.7286 33.9709 42.46 24.437 42.46H16.6718L33.2809 34.5409C35.2379 33.6026 36.5927 32.1014 37.3329 30.0121C38.073 27.9229 37.9601 25.8837 36.9942 23.8696C36.0533 21.9179 34.5354 20.5543 32.4279 19.7912C30.3204 19.028 28.2882 19.1156 26.3312 20.0414L17.6754 24.1698C17.2363 24.3825 16.8224 24.4075 16.4209 24.2699C16.0195 24.1323 15.731 23.8696 15.5428 23.4817C15.0787 22.5059 15.3296 21.7803 16.308 21.3174L41.573 9.14485C41.2343 8.75702 40.8705 8.3692 40.5067 8.0064C38.2612 5.76704 35.6519 4.01559 32.7415 2.78958C29.7308 1.51352 26.5319 0.875488 23.2327 0.875488H0V38.1689L5.93362 35.0663V6.80541H23.2201C25.4155 6.80541 27.523 7.19323 29.4799 7.89381L13.5231 15.5502C11.5034 16.5135 10.1361 18.0522 9.40848 20.154C8.68089 22.2682 8.7938 24.2949 9.7221 26.259C10.688 28.2732 12.2059 29.6243 14.2884 30.3374C16.3708 31.0505 18.4155 30.9254 20.4227 29.9621L29.0785 25.8337C29.4047 25.6836 29.7935 25.6836 30.2326 25.8337C30.6717 25.9963 30.9853 26.259 31.1734 26.6343C31.3616 27.0097 31.3616 27.41 31.1985 27.8228C31.0355 28.2357 30.7846 28.5234 30.4584 28.6735L0.0125446 44.4992V48.3899H24.437C27.5731 48.3899 30.6089 47.7769 33.4817 46.5634C36.2415 45.3999 38.7253 43.7235 40.8579 41.5968C42.9905 39.47 44.6589 36.9929 45.8381 34.2407C47.055 31.3883 47.6697 28.3483 47.6697 25.2207C47.6571 21.9304 47.0173 18.7403 45.7378 15.7378Z" fill="#ED4523"/>
</svg>
